<?xml version="1.0" encoding="utf-8"?>
<svg id="Capa_1" version="1.1" viewBox="0 0 128 128" xmlns="http://www.w3.org/2000/svg">
    <rect fill="#21A365" height="29.8" width="49.3" x="78.7" y="34.2"/>
    
    <rect fill="#107C41" height="29.8" width="49.3" x="78.7" y="64"/>
    
    <rect fill="#107C41" height="29.8" width="49.2" x="29.5" y="34.2"/>
    
    <path fill="#185B37" d="M78.7,93.8V64H29.6v29.8v4.3v19.6c0,3.2,2.6,5.8,5.8,5.8h86.7c3.2,0,5.8-2.6,5.8-5.8V93.8H78.7z"/>
    
    <path fill="#33C481" d="M122.1,4.5H78.6v29.8h49.4V10.3C127.9,7.1,125.3,4.5,122.1,4.5z"/>
    
    <path fill="#21A365" d="M78.7,4.5H35.5c-3.2,0-5.8,2.6-5.8,5.8v23.9h49.1V4.5z"/>
    
    <path fill="#17864C" d="M59.5,96.5h-53c-3.5,0-6.4-2.9-6.4-6.4V37.9c0-3.5,2.9-6.4,6.4-6.4h53c3.5,0,6.4,2.9,6.4,6.4v52.2 C65.9,93.6,63.1,96.5,59.5,96.5z"/>
    
    <g>
        <path fill="#FFFFFF" d="M40.5,82.4l-3.9-7.1c-1.6-2.8-2.6-4.7-3.7-6.8h-0.1c-0.9,2.1-1.8,4-3.3,6.8L26,82.4h-7.6l10.8-18.1L18.7,46.5 h7.7l3.9,7.4c1.2,2.2,2.1,4,3,6h0.2c1-2.2,1.7-3.8,2.9-6l3.9-7.4h7.6L37.2,64l11.1,18.4H40.5z"/>
    </g>
    
    <path fill="#000000" opacity="0.2" d="M66.7,37.3c0,0.2,0,0.4,0,0.6v52.2c0,3.5-2.9,6.4-6.4,6.4H30.4v5.7h35.2c3.5,0,6.4-2.9,6.4-6.4V43.6 C72.1,40.4,69.7,37.7,66.7,37.3z"/>
</svg>